<svg width="32" height="32" viewBox="0 0 32 32" fill="none" xmlns="http://www.w3.org/2000/svg">
<rect width="32" height="32" rx="16" fill="#333333"/>
<g clip-path="url(#clip0_1102_8873)">
<path d="M16.5972 13.8543C15.625 12.6897 13.9028 10.3882 9 10C11.4861 13.1056 14.0278 16.3498 15.3194 16.3498C12.75 18.7206 12.3333 20.6755 12.4167 22.8244L12.4306 22.9769C13.0694 20.7032 14.6667 19.8575 14.9028 19.7327C16.7083 18.6929 19.2639 18.4572 19.4306 16.7796C19.5833 15.3516 19.8056 14.6029 20.2917 13.9652C21.5833 12.2321 24.5556 12.9808 25 13.0224C24.5833 12.8838 22.7692 12.0707 21.2361 12.5926C21.0139 12.3708 20.9306 12.3015 20.6667 12.1628C19.0694 11.4142 18.2222 12.0103 17.1667 14.6861L17.1111 14.5891C16.9306 14.2979 16.8333 14.1454 16.5972 13.8543Z" fill="white"/>
</g>
<defs>
<clipPath id="clip0_1102_8873">
<rect width="16" height="13" fill="white" transform="translate(9 10)"/>
</clipPath>
</defs>
</svg>
